<svg width="24" height="24" viewBox="0 0 24 24" fill="none" xmlns="http://www.w3.org/2000/svg">
<g clip-path="url(#clip0_10_73)">
<path d="M23.9956 15.0632C23.9049 15.1407 23.9167 15.2559 23.8897 15.3574C23.5628 16.5884 23.236 17.8197 22.9091 19.0513C22.811 19.4137 22.7002 19.4784 22.3369 19.3833C21.9084 19.2705 21.4794 19.1602 21.0518 19.0455C20.7841 18.9734 20.7056 18.8493 20.7689 18.5841C20.8176 18.3482 20.8843 18.1165 20.9685 17.8908C21.0395 17.7162 20.9645 17.6814 20.8268 17.6456C18.942 17.1449 17.0578 16.643 15.174 16.1399C14.6558 16.0016 14.1404 15.8541 13.6192 15.7276C13.4638 15.6898 13.4261 15.6241 13.43 15.4755C13.4388 15.149 13.4535 14.8195 13.3751 14.4988C13.3412 14.3586 13.3839 14.314 13.5153 14.2797C13.9428 14.1689 14.2184 13.8482 14.2664 13.4285C14.2847 13.2255 14.2407 13.0218 14.1403 12.8445C14.0399 12.6671 13.8879 12.5245 13.7046 12.4356C13.3486 12.264 13.0093 12.3376 12.6896 12.545C12.6646 12.5612 12.6376 12.5739 12.6009 12.594C12.3817 12.1395 12.1709 11.6899 11.9478 11.2466C11.8801 11.1128 11.9561 11.0451 12.0262 10.9632L14.5386 8.03808C14.6705 7.88462 14.8004 7.72919 14.9347 7.57768C15.4128 7.03835 16.0051 6.84615 16.7028 7.02266C18.4189 7.45707 20.1349 7.89197 21.851 8.34649C22.5374 8.52692 22.9635 8.98928 23.0979 9.68747C23.392 11.2074 23.6681 12.7274 23.951 14.2508C23.9569 14.2826 23.9598 14.3111 24 14.3189L23.9956 15.0632ZM13.5383 11.2476C13.6207 11.2756 13.6761 11.2967 13.7345 11.3128C15.377 11.7531 17.0198 12.1929 18.663 12.6323C19.8932 12.9617 21.1253 13.2839 22.3516 13.6271C22.5968 13.6952 22.584 13.6138 22.5477 13.4364C22.4953 13.1912 22.4565 12.946 22.4075 12.7033C22.2472 11.9115 22.1393 11.1089 21.9407 10.3244C21.8598 10.0047 21.6686 9.78995 21.3524 9.68698C21.2273 9.6458 21.1038 9.59726 20.9768 9.56244C19.6363 9.19471 18.2914 8.84316 16.9563 8.45631C16.3792 8.28912 15.9492 8.4269 15.5736 8.88239C15.0583 9.50704 14.5194 10.1121 13.9904 10.7255L13.5383 11.2476ZM22.7414 15.6408C22.7408 15.3776 22.6366 15.1253 22.4515 14.9383C22.2664 14.7514 22.0151 14.6447 21.752 14.6415C21.1665 14.6415 20.7713 15.0509 20.7713 15.6555C20.7713 16.1855 21.2273 16.6484 21.7485 16.6459C22.281 16.6405 22.7424 16.1737 22.7414 15.6408Z" fill="#010101"/>
<path d="M6.53088 18.2296C5.18302 18.2296 3.83419 18.234 2.48683 18.2252C2.29855 18.2252 2.24707 18.2776 2.25786 18.4591C2.27306 18.7076 2.26129 18.9577 2.2608 19.2068C2.2608 19.4279 2.13675 19.5417 1.92788 19.5446C1.41404 19.552 0.898237 19.5529 0.385377 19.5446C0.151501 19.5412 0.0524597 19.4299 0.0524597 19.1867C0.0524597 17.7837 0.0540929 16.3811 0.0573616 14.9789C0.0573616 14.6401 0.168173 14.3223 0.313794 14.0179C0.966882 12.6514 1.61458 11.2829 2.27502 9.91939C2.57411 9.30013 3.08794 8.9878 3.77094 8.9878C5.58638 8.98094 7.40199 8.98094 9.21775 8.9878C9.93801 8.99074 10.4715 9.33102 10.7867 9.9743C11.4325 11.3011 12.0615 12.6362 12.6989 13.9669C12.8922 14.3677 12.9909 14.8075 12.9872 15.2525C12.9828 16.5302 12.9872 17.8079 12.9872 19.0862C12.9872 19.4613 12.8965 19.548 12.5146 19.5485C12.0782 19.5485 11.6418 19.5485 11.2055 19.5485C10.8701 19.5485 10.7794 19.4544 10.7759 19.1146C10.7759 18.9043 10.7627 18.6924 10.7794 18.4836C10.7956 18.2875 10.749 18.2232 10.5342 18.2252C9.19569 18.236 7.86304 18.2296 6.53088 18.2296ZM6.49361 13.8703C7.97385 13.8703 9.45457 13.8668 10.9348 13.8742C11.1358 13.8742 11.1535 13.833 11.0701 13.6604C10.7858 13.0721 10.519 12.4783 10.2366 11.8909C10.0478 11.4987 9.8934 11.0917 9.65364 10.725C9.51341 10.5092 9.3266 10.37 9.07115 10.3415C8.8778 10.3191 8.68332 10.3076 8.48867 10.3072C7.12513 10.3043 5.7611 10.3205 4.39804 10.2989C3.80134 10.2891 3.41743 10.5181 3.17228 11.0647C2.78003 11.9355 2.35396 12.7911 1.9318 13.6477C1.83914 13.8355 1.86757 13.8747 2.07448 13.8737C3.54834 13.8668 5.02073 13.8703 6.49361 13.8703ZM1.1277 15.9654C1.1326 16.517 1.58712 16.9778 2.11812 16.9705C2.66432 16.9622 3.13453 16.4802 3.12325 15.9443C3.11197 15.4084 2.64765 14.9666 2.09704 14.9735C1.96826 14.9749 1.84103 15.0018 1.72262 15.0524C1.60421 15.1031 1.49693 15.1765 1.40692 15.2686C1.31691 15.3607 1.24592 15.4697 1.19801 15.5892C1.1501 15.7088 1.12621 15.8366 1.1277 15.9654ZM9.91252 15.9536C9.91252 16.5125 10.3474 16.9666 10.8872 16.9705C11.4271 16.9744 11.8963 16.5086 11.8963 15.956C11.8963 15.4167 11.4428 14.9754 10.8887 14.9754C10.7602 14.9749 10.6329 14.9999 10.5141 15.0489C10.3954 15.0979 10.2875 15.1699 10.1968 15.2609C10.106 15.3519 10.0342 15.4599 9.98551 15.5788C9.93681 15.6977 9.91216 15.8251 9.91301 15.9536H9.91252Z" fill="#010101"/>
<path d="M11.9522 9.21775C11.7747 7.84146 11.6026 6.51519 11.4325 5.18891C11.3408 4.47551 11.4629 4.48924 12.0262 4.49856C12.4744 4.5064 12.5788 4.61182 12.5244 5.03103C12.359 6.31138 12.1933 7.59157 12.0272 8.8716C12.0125 8.9726 11.9826 9.07753 11.9522 9.21775Z" fill="#010101"/>
<path d="M12.7906 8.89219C12.7592 8.81472 12.8161 8.75883 12.8397 8.69999C13.1992 7.83346 13.562 6.96725 13.9281 6.10137C14.0399 5.83513 14.1007 5.81356 14.3645 5.94202C14.8636 6.18717 14.873 6.221 14.5405 6.65689C14.012 7.34952 13.4824 8.04135 12.9519 8.73235C12.9083 8.79217 12.8848 8.87797 12.7906 8.89219Z" fill="#010101"/>
<path d="M11.179 9.23345C10.5592 8.41905 9.96058 7.63505 9.36486 6.84859C9.27317 6.72798 9.12411 6.59167 9.23885 6.43674C9.30016 6.35084 9.37904 6.27896 9.47025 6.22587C9.56146 6.17279 9.66291 6.13971 9.76788 6.12882C9.88556 6.11804 9.95764 6.20629 9.99735 6.29896C10.3965 7.24198 10.7923 8.18632 11.1849 9.13196C11.1922 9.15206 11.1824 9.17804 11.179 9.23345Z" fill="#010101"/>
</g>
<defs>
<clipPath id="clip0_10_73">
<rect width="24" height="24" fill="white"/>
</clipPath>
</defs>
</svg>
