<svg width="41" height="41" viewBox="0 0 41 41" fill="none" xmlns="http://www.w3.org/2000/svg">
<circle cx="20.5" cy="20.5" r="20.5" fill="#010101"/>
<g filter="url(#filter0_d_116_4)">
<path d="M21 10.5C18.9233 10.5 16.8932 11.1158 15.1665 12.2696C13.4398 13.4233 12.094 15.0632 11.2993 16.9818C10.5045 18.9004 10.2966 21.0116 10.7018 23.0484C11.1069 25.0852 12.1069 26.9562 13.5754 28.4246C15.0438 29.8931 16.9148 30.8931 18.9516 31.2982C20.9884 31.7034 23.0996 31.4955 25.0182 30.7007C26.9368 29.906 28.5767 28.5602 29.7304 26.8335C30.8842 25.1068 31.5 23.0767 31.5 21C31.5 18.2152 30.3938 15.5445 28.4246 13.5754C26.4555 11.6062 23.7848 10.5 21 10.5ZM21 15C21.2225 15 21.44 15.066 21.625 15.1896C21.81 15.3132 21.9542 15.4889 22.0394 15.6945C22.1245 15.9 22.1468 16.1262 22.1034 16.3445C22.06 16.5627 21.9528 16.7632 21.7955 16.9205C21.6382 17.0778 21.4377 17.185 21.2195 17.2284C21.0013 17.2718 20.7751 17.2495 20.5695 17.1644C20.3639 17.0792 20.1882 16.935 20.0646 16.75C19.941 16.565 19.875 16.3475 19.875 16.125C19.875 15.8266 19.9935 15.5405 20.2045 15.3295C20.4155 15.1185 20.7016 15 21 15ZM24 27.0938H18V25.4062H20.1563V21.0938H18.75V19.4062H21.8438V25.4062H24V27.0938Z" fill="white"/>
</g>
<defs>
<filter id="filter0_d_116_4" x="5" y="9" width="32" height="32" filterUnits="userSpaceOnUse" color-interpolation-filters="sRGB">
<feFlood flood-opacity="0" result="BackgroundImageFix"/>
<feColorMatrix in="SourceAlpha" type="matrix" values="0 0 0 0 0 0 0 0 0 0 0 0 0 0 0 0 0 0 127 0" result="hardAlpha"/>
<feOffset dy="4"/>
<feGaussianBlur stdDeviation="2"/>
<feComposite in2="hardAlpha" operator="out"/>
<feColorMatrix type="matrix" values="0 0 0 0 0 0 0 0 0 0 0 0 0 0 0 0 0 0 0.25 0"/>
<feBlend mode="normal" in2="BackgroundImageFix" result="effect1_dropShadow_116_4"/>
<feBlend mode="normal" in="SourceGraphic" in2="effect1_dropShadow_116_4" result="shape"/>
</filter>
</defs>
</svg>
