<svg width="24" height="22" viewBox="0 0 24 22" fill="none" xmlns="http://www.w3.org/2000/svg">
<g clip-path="url(#clip0_8_47)">
<path d="M12 0C9.10042 0 6.75 2.35042 6.75 5.25C6.75 7.59417 10.1812 11.8667 11.4958 13.4175C11.7621 13.7317 12.2383 13.7317 12.5042 13.4175C13.8188 11.8667 17.25 7.59417 17.25 5.25C17.25 2.35042 14.8996 0 12 0ZM12 7C11.0333 7 10.25 6.21667 10.25 5.25C10.25 4.28333 11.0333 3.5 12 3.5C12.9667 3.5 13.75 4.28333 13.75 5.25C13.75 6.21667 12.9667 7 12 7ZM0.838333 8.99792C0.590908 9.09688 0.378804 9.2677 0.229379 9.48835C0.0799536 9.709 5.92587e-05 9.96935 0 10.2358L0 20.6658C0 21.1375 0.47625 21.46 0.914167 21.285L6.66667 18.6667V8.955C6.29833 8.28917 5.99708 7.64083 5.78125 7.02083L0.838333 8.99792ZM12 14.9863C11.4138 14.9863 10.8592 14.7288 10.4788 14.2796C9.65958 13.3129 8.78833 12.2121 8 11.0829V18.6663L16 21.3329V11.0833C15.2117 12.2121 14.3408 13.3133 13.5213 14.28C13.1408 14.7288 12.5863 14.9863 12 14.9863ZM23.0858 6.715L17.3333 9.33333V21.3333L23.1617 19.0021C23.4091 18.9032 23.6213 18.7324 23.7707 18.5117C23.9201 18.291 24 18.0307 24 17.7642V7.33417C24 6.8625 23.5238 6.54 23.0858 6.715Z" fill="#010101"/>
</g>
<defs>
<clipPath id="clip0_8_47">
<rect width="24" height="21.3333" fill="white"/>
</clipPath>
</defs>
</svg>
