<svg width="24" height="20" viewBox="0 0 24 20" fill="none" xmlns="http://www.w3.org/2000/svg">
<path d="M22.8 2.39999H1.2C0.537375 2.39999 0 2.93737 0 3.59999V15.6C0 16.2626 0.537375 16.8 1.2 16.8H22.8C23.4626 16.8 24 16.2626 24 15.6V3.59999C24 2.93737 23.4626 2.39999 22.8 2.39999ZM1.8 15V12.6C3.12563 12.6 4.2 13.6744 4.2 15H1.8ZM1.8 6.59999V4.19999H4.2C4.2 5.52562 3.12563 6.59999 1.8 6.59999ZM12 13.2C10.3429 13.2 9 11.5879 9 9.59999C9 7.61174 10.3433 5.99999 12 5.99999C13.6568 5.99999 15 7.61174 15 9.59999C15 11.5886 13.6564 13.2 12 13.2ZM22.2 15H19.8C19.8 13.6744 20.8744 12.6 22.2 12.6V15ZM22.2 6.59999C20.8744 6.59999 19.8 5.52562 19.8 4.19999H22.2V6.59999Z" fill="#010101"/>
</svg>
