<svg width="22" height="22" viewBox="0 0 22 22" fill="none" xmlns="http://www.w3.org/2000/svg">
<path d="M1 10.5C1 8.85563 1.38621 7.23424 2.12752 5.76645C2.86882 4.29865 3.9445 3.02548 5.26791 2.04949L6.62245 3.88621C5.58669 4.65007 4.74481 5.64651 4.16462 6.79528C3.58444 7.94405 3.28217 9.21303 3.28217 10.5H1Z" fill="#010101"/>
<path d="M21 10.5C21 8.85563 20.6138 7.23424 19.8725 5.76645C19.1312 4.29865 18.0555 3.02548 16.7321 2.04949L15.3775 3.88621C16.4133 4.65007 17.2552 5.64651 17.8354 6.79528C18.4156 7.94405 18.7178 9.21303 18.7178 10.5H21Z" fill="#010101"/>
<path d="M19 18.19L6.84 5.64L4.27 2.99L3 4.26L5.8 7.06V7.07C5.28 8.06 5 9.23 5 10.49V15.49L3 17.49V18.49H16.73L18.73 20.49L20 19.22L19 18.19ZM11 21.5C12.11 21.5 13 20.61 13 19.5H9C9 20.61 9.89 21.5 11 21.5ZM17 14.18V10.5C17 7.42 15.36 4.86 12.5 4.18V3.5C12.5 2.67 11.83 2 11 2C10.17 2 9.5 2.67 9.5 3.5V4.18C9.35 4.21 9.21 4.26 9.08 4.3C8.98 4.33 8.88 4.37 8.78 4.41H8.77C8.76 4.41 8.76 4.41 8.75 4.42C8.52 4.51 8.29 4.62 8.07 4.73C8.07 4.73 8.06 4.73 8.06 4.74L17 14.18Z" fill="#010101"/>
</svg>
