<svg width="98" height="64" viewBox="0 0 98 64" fill="none" xmlns="http://www.w3.org/2000/svg">
<g clip-path="url(#clip0_284_201)">
<path d="M79.533 38.5033C84.4273 41.003 93.7709 55.5012 100 55.5012V65H-1V21.0054C5.13912 23.1502 9.32343 23.1502 15.4626 21.0054C18.8017 19.8389 19.9753 16.5896 23.4714 16.506C28.0014 16.3977 28.7292 23.4428 33.2599 23.5051C41.1112 23.6131 36.408 -3.49588 41.7137 3.00767C46.6079 9.00694 54.6254 42.5164 61.7357 43.5027C68.8459 44.4889 76.2694 36.8364 79.533 38.5033Z" fill="url(#paint0_linear_284_201)"/>
<path d="M100 55.5012V55.0012H100.5V55.5012H100ZM79.533 38.5033L79.7605 38.058L79.533 38.5033ZM61.7357 43.5027L61.667 43.9979L61.7357 43.5027ZM41.7137 3.00767L42.1011 2.6916V2.6916L41.7137 3.00767ZM33.2599 23.5051L33.253 24.0051L33.2599 23.5051ZM23.4714 16.506L23.4594 16.0061L23.4714 16.506ZM15.4626 21.0054L15.2976 20.5334L15.4626 21.0054ZM-1 21.0054H-1.5V20.3011L-0.835091 20.5334L-1 21.0054ZM-1 65V65.5H-1.5V65H-1ZM100 65H100.5V65.5H100V65ZM100 56.0012C98.2684 56.0012 96.4032 55.0045 94.5587 53.5939C92.6967 52.17 90.769 50.255 88.9028 48.2833C87.0188 46.2928 85.2258 44.276 83.5611 42.5621C81.8936 40.8452 80.4452 39.5306 79.3056 38.9486L79.7605 38.058C81.0681 38.7258 82.6229 40.1608 84.2785 41.8654C85.937 43.573 87.7868 45.6494 89.6291 47.5959C91.4893 49.5612 93.3713 51.427 95.1661 52.7996C96.9784 54.1855 98.6171 55.0012 100 55.0012V56.0012ZM79.3056 38.9486C78.694 38.6362 77.8023 38.7258 76.5485 39.1889C75.3164 39.644 73.8964 40.3943 72.301 41.1946C69.1672 42.7667 65.3982 44.5155 61.667 43.9979L61.8044 43.0074C65.1834 43.4761 68.6812 41.8917 71.8526 40.3008C73.4098 39.5196 74.9021 38.731 76.202 38.2509C77.4801 37.7788 78.7402 37.5369 79.7605 38.058L79.3056 38.9486ZM61.667 43.9979C60.6006 43.85 59.5968 43.11 58.6611 42.0578C57.7152 40.9943 56.7784 39.5431 55.8562 37.8411C54.0109 34.4351 52.1791 29.9389 50.4261 25.3122C48.6641 20.6618 46.9945 15.9155 45.4408 11.908C44.6669 9.91178 43.9293 8.11928 43.235 6.64239C42.5369 5.15721 41.8974 4.02389 41.3262 3.32374L42.1011 2.6916C42.7535 3.49127 43.4352 4.71746 44.14 6.21698C44.8488 7.72479 45.5961 9.54218 46.3732 11.5465C47.9215 15.5402 49.6183 20.3577 51.3612 24.9579C53.1132 29.5818 54.9249 34.0228 56.7355 37.3647C57.6413 39.0366 58.5357 40.412 59.4083 41.3933C60.291 42.3858 61.0932 42.9088 61.8044 43.0074L61.667 43.9979ZM41.3262 3.32374C41.0105 2.93676 40.7595 2.71018 40.5693 2.59358C40.384 2.47997 40.3081 2.49992 40.2931 2.50443C40.2654 2.51276 40.1814 2.55392 40.0664 2.74821C39.9534 2.93901 39.8437 3.2232 39.742 3.60919C39.3291 5.17765 39.1773 7.88368 38.9398 10.8973C38.706 13.8658 38.3896 17.0951 37.6248 19.5804C37.2424 20.8232 36.7352 21.9248 36.0348 22.7193C35.3202 23.5299 34.4017 24.0209 33.253 24.0051L33.2668 23.0052C34.0809 23.0164 34.7329 22.6839 35.2846 22.058C35.8505 21.4161 36.3054 20.4682 36.6691 19.2863C37.3964 16.9224 37.708 13.8011 37.9429 10.8188C38.1743 7.88163 38.3322 5.03658 38.775 3.3546C38.8873 2.92798 39.0256 2.54335 39.2058 2.23883C39.384 1.93779 39.6383 1.65712 40.0051 1.5468C40.3846 1.43267 40.7594 1.53718 41.0919 1.74102C41.4196 1.94187 41.7536 2.26564 42.1011 2.6916L41.3262 3.32374ZM33.253 24.0051C30.6995 23.97 29.2412 21.9454 27.9651 20.2413C26.6142 18.4371 25.4492 16.9589 23.4833 17.0059L23.4594 16.0061C26.0235 15.9448 27.4875 17.935 28.7656 19.6419C30.1186 21.4488 31.2896 22.978 33.2668 23.0052L33.253 24.0051ZM23.4833 17.0059C21.9149 17.0434 20.8603 17.7784 19.7306 18.7317C18.6177 19.6708 17.4061 20.8561 15.6275 21.4775L15.2976 20.5334C16.8582 19.9882 17.9029 18.9656 19.0857 17.9675C20.2515 16.9836 21.5318 16.0522 23.4594 16.0061L23.4833 17.0059ZM15.6275 21.4775C12.5241 22.5617 9.88552 23.114 7.23128 23.114C4.57703 23.114 1.93848 22.5617 -1.16491 21.4775L-0.835091 20.5334C2.20064 21.594 4.72381 22.114 7.23128 22.114C9.73874 22.114 12.2619 21.594 15.2976 20.5334L15.6275 21.4775ZM-0.5 21.0054V65H-1.5V21.0054H-0.5ZM-1 64.5H100V65.5H-1V64.5ZM99.5 65V55.5012H100.5V65H99.5Z" fill="#CF1317"/>
</g>
<defs>
<linearGradient id="paint0_linear_284_201" x1="49.5" y1="2" x2="49.5" y2="65" gradientUnits="userSpaceOnUse">
<stop stop-color="#CF1317" stop-opacity="0.45"/>
<stop offset="1" stop-color="#CF1317" stop-opacity="0"/>
</linearGradient>
<clipPath id="clip0_284_201">
<rect width="98" height="64" fill="white"/>
</clipPath>
</defs>
</svg>
