<svg width="98" height="64" viewBox="0 0 98 64" fill="none" xmlns="http://www.w3.org/2000/svg">
<g clip-path="url(#clip0_284_197)">
<path d="M19.467 38.5033C14.5727 41.003 5.22907 55.5012 -1 55.5012V65H100V21.0054C93.8609 23.1502 89.6766 23.1502 83.5374 21.0054C80.1983 19.8389 79.0247 16.5896 75.5286 16.506C70.9986 16.3977 70.2708 23.4428 65.7401 23.5051C57.8888 23.6131 62.592 -3.49588 57.2863 3.00767C52.3921 9.00694 44.3746 42.5164 37.2643 43.5027C30.1541 44.4889 22.7306 36.8364 19.467 38.5033Z" fill="url(#paint0_linear_284_197)"/>
<path d="M-1 55.5012V55.0012H-1.5V55.5012H-1ZM19.467 38.5033L19.2395 38.058L19.467 38.5033ZM37.2643 43.5027L37.333 43.9979L37.2643 43.5027ZM57.2863 3.00767L56.8989 2.6916V2.6916L57.2863 3.00767ZM65.7401 23.5051L65.747 24.0051L65.7401 23.5051ZM75.5286 16.506L75.5406 16.0061L75.5286 16.506ZM83.5374 21.0054L83.7024 20.5334L83.5374 21.0054ZM100 21.0054H100.5V20.3011L99.8351 20.5334L100 21.0054ZM100 65V65.5H100.5V65H100ZM-1 65H-1.5V65.5H-1V65ZM-1 56.0012C0.731591 56.0012 2.59682 55.0045 4.44133 53.5939C6.30333 52.17 8.23102 50.255 10.0972 48.2833C11.9812 46.2928 13.7742 44.276 15.4389 42.5621C17.1064 40.8452 18.5548 39.5306 19.6944 38.9486L19.2395 38.058C17.9319 38.7258 16.3771 40.1608 14.7215 41.8654C13.063 43.573 11.2132 45.6494 9.37089 47.5959C7.51072 49.5612 5.62866 51.427 3.83386 52.7996C2.02158 54.1855 0.382946 55.0012 -1 55.0012V56.0012ZM19.6944 38.9486C20.306 38.6362 21.1977 38.7258 22.4515 39.1889C23.6836 39.644 25.1036 40.3943 26.699 41.1946C29.8328 42.7667 33.6018 44.5155 37.333 43.9979L37.1956 43.0074C33.8166 43.4761 30.3188 41.8917 27.1474 40.3008C25.5902 39.5196 24.0979 38.731 22.798 38.2509C21.5199 37.7788 20.2598 37.5369 19.2395 38.058L19.6944 38.9486ZM37.333 43.9979C38.3994 43.85 39.4032 43.11 40.3389 42.0578C41.2848 40.9943 42.2216 39.5431 43.1438 37.8411C44.9891 34.4351 46.8209 29.9389 48.5739 25.3122C50.3359 20.6618 52.0055 15.9155 53.5592 11.908C54.3331 9.91178 55.0707 8.11928 55.765 6.64239C56.4631 5.15721 57.1026 4.02389 57.6738 3.32374L56.8989 2.6916C56.2465 3.49127 55.5648 4.71746 54.86 6.21698C54.1512 7.72479 53.4039 9.54218 52.6268 11.5465C51.0785 15.5402 49.3817 20.3577 47.6388 24.9579C45.8868 29.5818 44.0751 34.0228 42.2645 37.3647C41.3587 39.0366 40.4643 40.412 39.5917 41.3933C38.709 42.3858 37.9068 42.9088 37.1956 43.0074L37.333 43.9979ZM57.6738 3.32374C57.9895 2.93676 58.2405 2.71018 58.4307 2.59358C58.616 2.47997 58.6919 2.49992 58.7069 2.50443C58.7346 2.51276 58.8186 2.55392 58.9336 2.74821C59.0466 2.93901 59.1563 3.2232 59.258 3.60919C59.6709 5.17765 59.8227 7.88368 60.0602 10.8973C60.294 13.8658 60.6104 17.0951 61.3752 19.5804C61.7576 20.8232 62.2648 21.9248 62.9652 22.7193C63.6798 23.5299 64.5983 24.0209 65.747 24.0051L65.7332 23.0052C64.9191 23.0164 64.2671 22.6839 63.7154 22.058C63.1495 21.4161 62.6946 20.4682 62.3309 19.2863C61.6036 16.9224 61.292 13.8011 61.0571 10.8188C60.8257 7.88163 60.6678 5.03658 60.225 3.3546C60.1127 2.92798 59.9744 2.54335 59.7942 2.23883C59.616 1.93779 59.3617 1.65712 58.9949 1.5468C58.6154 1.43267 58.2406 1.53718 57.9081 1.74102C57.5804 1.94187 57.2464 2.26564 56.8989 2.6916L57.6738 3.32374ZM65.747 24.0051C68.3005 23.97 69.7588 21.9454 71.0349 20.2413C72.3858 18.4371 73.5508 16.9589 75.5167 17.0059L75.5406 16.0061C72.9765 15.9448 71.5125 17.935 70.2344 19.6419C68.8814 21.4488 67.7104 22.978 65.7332 23.0052L65.747 24.0051ZM75.5167 17.0059C77.0851 17.0434 78.1397 17.7784 79.2694 18.7317C80.3823 19.6708 81.5939 20.8561 83.3725 21.4775L83.7024 20.5334C82.1418 19.9882 81.0971 18.9656 79.9143 17.9675C78.7485 16.9836 77.4682 16.0522 75.5406 16.0061L75.5167 17.0059ZM83.3725 21.4775C86.4759 22.5617 89.1145 23.114 91.7687 23.114C94.423 23.114 97.0615 22.5617 100.165 21.4775L99.8351 20.5334C96.7994 21.594 94.2762 22.114 91.7687 22.114C89.2613 22.114 86.7381 21.594 83.7024 20.5334L83.3725 21.4775ZM99.5 21.0054V65H100.5V21.0054H99.5ZM100 64.5H-1V65.5H100V64.5ZM-0.5 65V55.5012H-1.5V65H-0.5Z" fill="#FFA724"/>
</g>
<defs>
<linearGradient id="paint0_linear_284_197" x1="49.5" y1="2" x2="49.5" y2="65" gradientUnits="userSpaceOnUse">
<stop stop-color="#FFA724" stop-opacity="0.45"/>
<stop offset="1" stop-color="#FFA724" stop-opacity="0"/>
</linearGradient>
<clipPath id="clip0_284_197">
<rect width="98" height="64" fill="white"/>
</clipPath>
</defs>
</svg>
